<?xml version="1.0" encoding="iso-8859-1"?>
<!-- Generator: Adobe Illustrator 16.0.0, SVG Export Plug-In . SVG Version: 6.00 Build 0)  -->
<!DOCTYPE svg PUBLIC "-//W3C//DTD SVG 1.1//EN" "http://www.w3.org/Graphics/SVG/1.1/DTD/svg11.dtd">
<svg version="1.1" id="Capa_1" xmlns="http://www.w3.org/2000/svg" xmlns:xlink="http://www.w3.org/1999/xlink" x="0px" y="0px"
	 width="328px" height="328px" viewBox="0 0 328 328" style="enable-background:new 0 0 328 328;" xml:space="preserve">
<g>
	<g>
		<path d="M164,0C73.425,0,0,73.425,0,164s73.425,164,164,164c90.574,0,164-73.425,164-164S254.574,0,164,0z M192.258,166.965
			c-1.595,19.083-7.367,37.419-10.235,56.287c-0.408,3.604-1.255,9.354,0.525,11.191c4.896,5.055,10.007,12.635,7.509,21.716
			c-2.303,8.368-10.912,15.118-19.748,15.118c-14.274,0-24.958-13.498-27.754-25.399c-1.987-8.458-1.872-16.961-0.734-25.499
			c2.281-17.133,7.011-33.788,9.625-50.839c-7.714-1.192-14.605-7.1-16.714-14.764c-3.015-10.962,3.635-21.609,14.162-24.943
			c11.198-3.545,26.408-3.078,34.701,6.775C193.797,148.735,192.682,161.885,192.258,166.965z M165.957,112.809
			c-15.489,0-28.043-12.554-28.043-28.043c0-15.488,12.555-28.042,28.043-28.042S194,69.277,194,84.766
			C194,100.255,181.445,112.809,165.957,112.809z"/>
	</g>
</g>
<g>
</g>
<g>
</g>
<g>
</g>
<g>
</g>
<g>
</g>
<g>
</g>
<g>
</g>
<g>
</g>
<g>
</g>
<g>
</g>
<g>
</g>
<g>
</g>
<g>
</g>
<g>
</g>
<g>
</g>
</svg>
