<?xml version="1.0" encoding="utf-8"?>
<!-- Generator: Adobe Illustrator 16.0.0, SVG Export Plug-In . SVG Version: 6.00 Build 0)  -->
<!DOCTYPE svg PUBLIC "-//W3C//DTD SVG 1.1//EN" "http://www.w3.org/Graphics/SVG/1.1/DTD/svg11.dtd">
<svg version="1.1" id="Layer_1" xmlns="http://www.w3.org/2000/svg" xmlns:xlink="http://www.w3.org/1999/xlink" x="0px" y="0px"
	 width="24px" height="24px" viewBox="0 0 24 24" enable-background="new 0 0 24 24" xml:space="preserve">
<g>
	<g>
		<path d="M16.642,10.817c0.876-0.228,2.04-1.191,2.553-2.328c-0.16,0.054-0.33,0.076-0.501,0.059l0,0
			c-0.358-0.032-0.66-0.217-0.856-0.487c-0.282,0.533-0.714,0.944-1.05,1.161L16.642,10.817z"/>
		<path d="M20.953,2.811c0.042-0.279-0.152-0.542-0.435-0.584c-0.279-0.042-0.542,0.153-0.583,0.431L19.895,2.93l-0.829-0.128
			l0.04-0.268c0.042-0.283-0.155-0.545-0.434-0.587c-0.282-0.042-0.545,0.151-0.587,0.434l-0.115,0.771
			c-0.006,0.04-0.005,0.081-0.003,0.122c0,0.004-0.001,0.007-0.002,0.011c-0.052,0.351,0.188,0.676,0.539,0.729l0.087,0.013
			l-0.324,2.166l0.049,0.059c0.184-0.083,0.39-0.124,0.605-0.102c0.021,0.003,0.043,0.007,0.065,0.01
			c0.261,0.039,0.488,0.158,0.665,0.333l0.338-2.256l0.101,0.015c0.347,0.056,0.673-0.188,0.725-0.536
			c0.003-0.022,0.003-0.044,0.006-0.066c0.003-0.021,0.014-0.042,0.013-0.064L20.953,2.811z M20.833,3.585"/>
		<circle cx="18.799" cy="7.401" r="0.776"/>
	</g>
	<g>
		<path d="M10.485,22.371v-1.967l-0.144-0.128c-0.169,0.11-0.366,0.179-0.582,0.19c-0.021,0-0.044,0-0.066,0
			c-0.227,0-0.439-0.063-0.622-0.172v1.981c-0.714,0.249-1.23,0.923-1.23,1.725h3.65C11.491,23.286,11.081,22.667,10.485,22.371
			L10.485,22.371z M10.485,22.371"/>
		<path d="M14.952,22.275v-1.985c-0.18,0.113-0.392,0.176-0.619,0.176c-0.021,0-0.048,0-0.065,0
			c-0.217-0.011-0.414-0.081-0.582-0.19l-0.144,0.128v1.963c-0.597,0.3-1.007,0.919-1.007,1.629h3.647
			C16.183,23.198,15.67,22.521,14.952,22.275L14.952,22.275z M14.952,22.275"/>
		<path d="M9.071,16.792v1.438c0.164-0.099,0.355-0.158,0.556-0.168c0.327-0.019,0.627,0.095,0.854,0.293l-0.063-1.563L9.071,16.792
			z"/>
		<path d="M13.718,16.79l-0.063,1.563c0.228-0.198,0.527-0.312,0.854-0.293c0.2,0.011,0.392,0.069,0.556,0.168v-1.438L13.718,16.79z
			"/>
		<g>
			<path d="M10.888,4.716c0,0.238-0.194,0.432-0.433,0.432c-0.242,0-0.433-0.194-0.433-0.432s0.19-0.432,0.433-0.432
				C10.693,4.284,10.888,4.478,10.888,4.716L10.888,4.716z M10.888,4.716"/>
			<path d="M14.004,4.716c0,0.238-0.194,0.432-0.433,0.432c-0.237,0-0.432-0.194-0.432-0.432s0.194-0.432,0.432-0.432
				C13.81,4.284,14.004,4.478,14.004,4.716L14.004,4.716z M14.004,4.716"/>
			<path d="M13.85,9.052V8.101h1.212c0,0,1.26-5.409,0-5.409h-1.277c-0.176-0.238-0.699-0.425-1.362-0.486L12.06,2.186
				c-0.019,0-0.033,0-0.049,0c-0.014,0-0.028,0-0.043,0C11.848,1.798,11.4,0.638,10.4,0.352C10.309,0.146,10.104,0,9.861,0
				C9.532,0,9.27,0.267,9.27,0.594c0,0.325,0.263,0.593,0.592,0.593c0.275,0,0.507-0.191,0.572-0.447
				c0.677,0.282,1.032,1.095,1.168,1.468c-0.663,0.059-1.19,0.25-1.366,0.488H8.962c-1.261,0,0,5.405,0,5.405h1.211v0.955H7.679
				l0.093,1.414l0.388,5.892h0.912h1.41h3.058h1.413h0.912l0.384-5.892l0.096-1.414L13.85,9.052z M10.451,5.673
				C9.925,5.673,9.5,5.244,9.5,4.716c0-0.527,0.425-0.955,0.951-0.955c0.531,0,0.96,0.428,0.96,0.955
				C11.411,5.244,10.982,5.673,10.451,5.673z M13.136,7.152h-2.248V6.445h1.123h1.125V7.152z M12.616,4.716
				c0-0.527,0.428-0.955,0.955-0.955s0.956,0.428,0.956,0.955c0,0.528-0.429,0.957-0.956,0.957S12.616,5.244,12.616,4.716z"/>
		</g>
		<g>
			<path d="M7.307,9.093c-0.833,0.355-1.841,1.48-2.181,2.68c0.15-0.077,0.315-0.125,0.487-0.132l0,0
				c0.358-0.021,0.685,0.117,0.919,0.355c0.199-0.569,0.565-1.039,0.866-1.303L7.307,9.093z"/>
			<path d="M4.229,17.65c0,0.282,0.231,0.513,0.517,0.513c0.282,0,0.513-0.231,0.513-0.513v-0.275l0.839,0.004v0.271
				c0,0.286,0.234,0.516,0.516,0.516c0.286,0,0.517-0.23,0.517-0.516v-0.78c0-0.04-0.007-0.081-0.015-0.121c0-0.004,0-0.007,0-0.011
				c0-0.355-0.285-0.641-0.641-0.641H6.386v-2.19l-0.058-0.051c-0.17,0.11-0.367,0.18-0.583,0.19c-0.022,0-0.044,0-0.066,0
				c-0.264,0-0.505-0.084-0.706-0.23v2.281H4.87c-0.352-0.004-0.638,0.286-0.638,0.637c0,0.022,0.004,0.044,0.004,0.066
				s-0.008,0.044-0.004,0.066L4.229,17.65z M4.232,16.867"/>
			<circle cx="5.679" cy="12.791" r="0.776"/>
		</g>
		<circle cx="9.666" cy="19.26" r="0.776"/>
		<circle cx="14.359" cy="19.26" r="0.776"/>
	</g>
</g>
</svg>
